<svg width="48" height="48" viewBox="0 0 48 48" fill="none" xmlns="http://www.w3.org/2000/svg">
<path d="M26 17.6C26 17.4 26.0667 17.2083 26.2 17.025C26.3333 16.8417 26.4833 16.7167 26.65 16.65C27.65 16.2833 28.675 16 29.725 15.8C30.775 15.6 31.8667 15.5 33 15.5C33.7333 15.5 34.45 15.5417 35.15 15.625C35.85 15.7083 36.5333 15.8333 37.2 16C37.4 16.0667 37.5833 16.1917 37.75 16.375C37.9167 16.5583 38 16.7667 38 17C38 17.3667 37.875 17.65 37.625 17.85C37.375 18.05 37.0667 18.1 36.7 18C36.1333 17.8333 35.5417 17.7083 34.925 17.625C34.3083 17.5417 33.6667 17.5 33 17.5C32.0333 17.5 31.1 17.5917 30.2 17.775C29.3 17.9583 28.4167 18.2333 27.55 18.6C27.0833 18.7667 26.7083 18.7583 26.425 18.575C26.1417 18.3917 26 18.0667 26 17.6ZM26 28.6C26 28.4 26.0667 28.2 26.2 28C26.3333 27.8 26.4833 27.6667 26.65 27.6C27.65 27.2333 28.675 26.9583 29.725 26.775C30.775 26.5917 31.8667 26.5 33 26.5C33.7333 26.5 34.45 26.5417 35.15 26.625C35.85 26.7083 36.5333 26.8333 37.2 27C37.4 27.0667 37.5833 27.1917 37.75 27.375C37.9167 27.5583 38 27.7667 38 28C38 28.3667 37.875 28.65 37.625 28.85C37.375 29.05 37.0667 29.1 36.7 29C36.1333 28.8333 35.5417 28.7083 34.925 28.625C34.3083 28.5417 33.6667 28.5 33 28.5C32.0333 28.5 31.1 28.5833 30.2 28.75C29.3 28.9167 28.4167 29.1833 27.55 29.55C27.0833 29.7167 26.7083 29.7167 26.425 29.55C26.1417 29.3833 26 29.0667 26 28.6ZM26 23.1C26 22.9 26.0667 22.7083 26.2 22.525C26.3333 22.3417 26.4833 22.2167 26.65 22.15C27.65 21.7833 28.675 21.5 29.725 21.3C30.775 21.1 31.8667 21 33 21C33.7333 21 34.45 21.0417 35.15 21.125C35.85 21.2083 36.5333 21.3333 37.2 21.5C37.4 21.5667 37.5833 21.6917 37.75 21.875C37.9167 22.0583 38 22.2667 38 22.5C38 22.8667 37.875 23.15 37.625 23.35C37.375 23.55 37.0667 23.6 36.7 23.5C36.1333 23.3333 35.5417 23.2083 34.925 23.125C34.3083 23.0417 33.6667 23 33 23C32.0333 23 31.1 23.0917 30.2 23.275C29.3 23.4583 28.4167 23.7333 27.55 24.1C27.0833 24.2667 26.7083 24.2583 26.425 24.075C26.1417 23.8917 26 23.5667 26 23.1ZM10.4 33C12.2 33 13.9417 33.2083 15.625 33.625C17.3083 34.0417 18.9667 34.6667 20.6 35.5V14.15C19.1 13.15 17.475 12.375 15.725 11.825C13.975 11.275 12.2 11 10.4 11C9.13333 11 7.89167 11.1583 6.675 11.475C5.45833 11.7917 4.23333 12.1833 3 12.65V34.35C4.03333 33.8833 5.20833 33.5417 6.525 33.325C7.84167 33.1083 9.13333 33 10.4 33ZM23.6 35.5C25.2667 34.6667 26.9 34.0417 28.5 33.625C30.1 33.2083 31.8 33 33.6 33C34.8667 33 36.175 33.1 37.525 33.3C38.875 33.5 40.0333 33.7667 41 34.1V12.65C39.8667 12.0833 38.6667 11.6667 37.4 11.4C36.1333 11.1333 34.8667 11 33.6 11C31.8 11 30.0583 11.275 28.375 11.825C26.6917 12.375 25.1 13.15 23.6 14.15V35.5ZM22.1 39.45C21.8333 39.45 21.5917 39.425 21.375 39.375C21.1583 39.325 20.9667 39.2333 20.8 39.1C19.2333 38.1333 17.5667 37.3833 15.8 36.85C14.0333 36.3167 12.2333 36.05 10.4 36.05C9.16667 36.05 7.96667 36.2 6.8 36.5C5.63333 36.8 4.46667 37.1667 3.3 37.6C2.53333 37.9667 1.79167 37.9167 1.075 37.45C0.358333 36.9833 0 36.3167 0 35.45V12.3C0 11.8 0.116667 11.3417 0.35 10.925C0.583333 10.5083 0.933333 10.1833 1.4 9.95C2.8 9.28333 4.25833 8.79167 5.775 8.475C7.29167 8.15833 8.83333 8 10.4 8C12.5 8 14.5417 8.28333 16.525 8.85C18.5083 9.41667 20.3667 10.2833 22.1 11.45C23.8 10.2833 25.625 9.41667 27.575 8.85C29.525 8.28333 31.5333 8 33.6 8C35.1667 8 36.7 8.15833 38.2 8.475C39.7 8.79167 41.15 9.28333 42.55 9.95C43.0167 10.1833 43.375 10.5083 43.625 10.925C43.875 11.3417 44 11.8 44 12.3V35.45C44 36.3833 43.625 37.0917 42.875 37.575C42.125 38.0583 41.3833 38.0667 40.65 37.6C39.5167 37.1333 38.3667 36.7583 37.2 36.475C36.0333 36.1917 34.8333 36.05 33.6 36.05C31.8 36.05 30.0333 36.3167 28.3 36.85C26.5667 37.3833 24.9333 38.1333 23.4 39.1C23.2333 39.2333 23.0417 39.325 22.825 39.375C22.6083 39.425 22.3667 39.45 22.1 39.45V39.45Z" fill="url(#paint0_linear_27_32)"/>
<defs>
<linearGradient id="paint0_linear_27_32" x1="22" y1="8" x2="22" y2="39.45" gradientUnits="userSpaceOnUse">
<stop stop-color="#EA7F43"/>
<stop offset="1" stop-color="#AF0000"/>
</linearGradient>
</defs>
</svg>
