<svg width="116" height="39" viewBox="0 0 116 39" fill="none" xmlns="http://www.w3.org/2000/svg">
<path d="M13.152 38.048L2.976 7.904L4.56 9.104L0.192001 7.904V4.448L14.4 4.208V7.664L9.696 9.008L10.512 7.328L17.856 32.048H16.896L24.912 7.712L25.44 9.056L21.072 7.904V4.448L33.888 4.208V7.664L29.568 8.96L31.152 7.76L20.448 38.048H13.152Z" fill="#141414"/>
<path d="M43.6718 34.064L43.1918 33.488L46.8878 34.544V38H33.7358V34.544L37.4318 33.488L36.9518 34.064V16.544L37.3838 16.976L33.7358 15.968V12.512L43.6718 12.176V34.064ZM40.1198 8.432C38.9358 8.432 37.9757 8.096 37.2397 7.424C36.5357 6.752 36.1838 5.792 36.1838 4.544C36.1838 3.2 36.5518 2.208 37.2878 1.568C38.0558 0.895997 39.0158 0.559998 40.1678 0.559998C41.2878 0.559998 42.2158 0.895997 42.9518 1.568C43.6878 2.208 44.0558 3.184 44.0558 4.496C44.0558 5.808 43.6718 6.8 42.9038 7.472C42.1678 8.112 41.2398 8.432 40.1198 8.432Z" fill="#141414"/>
<path d="M58.377 38.576C56.169 38.576 54.489 37.92 53.337 36.608C52.217 35.264 51.657 33.28 51.657 30.656V15.968L52.521 16.832H47.913V13.232L52.617 12.128L51.657 13.28V6.752L58.425 5.552V13.28L57.705 12.368H65.001L64.905 16.832H57.705L58.425 15.968V29.744C58.425 31.12 58.649 32.112 59.097 32.72C59.545 33.328 60.217 33.632 61.113 33.632C61.625 33.632 62.185 33.552 62.793 33.392C63.433 33.2 64.121 32.96 64.857 32.672L66.105 36.368C63.417 37.84 60.841 38.576 58.377 38.576Z" fill="#141414"/>
<path d="M79.9736 11.792C83.7496 11.792 86.6936 12.912 88.8056 15.152C90.9176 17.392 91.9736 20.576 91.9736 24.704C91.9736 27.584 91.4616 30.064 90.4376 32.144C89.4136 34.192 87.9416 35.776 86.0216 36.896C84.1016 38.016 81.7976 38.576 79.1096 38.576C75.3336 38.576 72.4056 37.456 70.3256 35.216C68.2776 32.976 67.2536 29.792 67.2536 25.664C67.2536 22.784 67.7496 20.32 68.7416 18.272C69.7656 16.192 71.2216 14.592 73.1096 13.472C74.9976 12.352 77.2856 11.792 79.9736 11.792ZM79.6376 16.592C77.8136 16.592 76.4536 17.312 75.5576 18.752C74.6616 20.16 74.2136 22.352 74.2136 25.328C74.2136 28.304 74.6456 30.464 75.5096 31.808C76.3736 33.12 77.6856 33.776 79.4456 33.776C80.7256 33.776 81.7656 33.456 82.5656 32.816C83.3656 32.176 83.9736 31.2 84.3896 29.888C84.8056 28.576 85.0136 26.96 85.0136 25.04C85.0136 22.128 84.5656 20 83.6696 18.656C82.7736 17.28 81.4296 16.592 79.6376 16.592Z" fill="#141414"/>
<path d="M94.8607 38V34.544L98.7487 33.44L98.0768 34.448V16.016L98.8447 17.168L94.8607 15.968V12.512L103.309 12.128L104.173 16.688L103.309 16.496C104.749 14.992 106.173 13.84 107.581 13.04C108.989 12.208 110.493 11.792 112.093 11.792C113.117 11.792 114.205 11.952 115.357 12.272L114.925 21.152H111.037L110.317 15.968L110.941 17.264C110.749 17.2 110.541 17.152 110.317 17.12C110.125 17.088 109.933 17.072 109.741 17.072C108.749 17.072 107.757 17.376 106.765 17.984C105.805 18.592 104.973 19.376 104.269 20.336L104.797 18.512V34.448L104.029 33.44L108.781 34.544V38H94.8607Z" fill="#141414"/>
</svg>
